<svg width="390" height="405" viewBox="0 0 390 405" fill="none" xmlns="http://www.w3.org/2000/svg">
<g clip-path="url(#clip0_52_61757)">
<g clip-path="url(#clip1_52_61757)">
<path d="M222.344 215.606C222.344 216.81 222.123 217.962 221.719 219.024C220.336 222.652 216.823 225.229 212.706 225.229C208.492 225.229 204.911 222.53 203.6 218.768C195.816 219.327 191.365 215.852 189.514 209.231C184.839 207.961 181.402 203.693 181.402 198.621C181.402 195.342 182.841 192.397 185.122 190.384C187.063 188.668 189.616 187.627 192.412 187.627C195.616 187.627 198.501 188.993 200.511 191.176C201.862 190.294 203.477 189.782 205.212 189.782C206.423 189.782 207.577 190.032 208.623 190.483C211.648 191.787 213.776 194.775 213.823 198.264C213.825 198.305 213.825 198.344 213.825 198.385L213.823 198.53V198.532C214.263 198.435 214.72 198.385 215.19 198.385C217.287 198.385 219.151 199.388 220.326 200.941H220.328C221.143 202.017 221.626 203.359 221.626 204.814C221.628 206.322 221.096 207.783 220.123 208.936C220.05 209.025 219.974 209.112 219.896 209.196C221.419 210.897 222.344 213.144 222.344 215.606" fill="#FF5CAA"/>
<path d="M205.104 197.844C203.36 199.737 202.296 202.263 202.296 205.038C202.296 210.906 207.06 215.664 212.936 215.664C213.694 215.664 214.45 215.584 215.192 215.424M191.946 194.414C192.212 198.252 195.414 201.283 199.324 201.283M211.087 199.858C211.878 199.202 212.816 198.746 213.822 198.531M200.509 191.175C199.271 191.981 198.253 193.097 197.567 194.414" stroke="#103849" stroke-width="1.30918" stroke-miterlimit="10" stroke-linecap="round" stroke-linejoin="round"/>
<path d="M222.343 215.605C222.343 220.92 218.028 225.228 212.705 225.228C208.491 225.228 204.91 222.529 203.599 218.767C195.815 219.325 191.364 215.851 189.513 209.23C184.838 207.96 181.401 203.692 181.401 198.62C181.401 192.548 186.33 187.626 192.411 187.626C195.615 187.626 198.5 188.992 200.51 191.175C201.861 190.293 203.476 189.781 205.211 189.781C209.968 189.781 213.824 193.633 213.824 198.384L213.822 198.529V198.531C214.262 198.434 214.719 198.384 215.189 198.384C218.743 198.384 221.625 201.261 221.625 204.812C221.625 206.507 220.968 208.047 219.895 209.195C221.418 210.896 222.343 213.143 222.343 215.605L222.343 215.605Z" stroke="#103849" stroke-width="1.14546" stroke-miterlimit="10" stroke-linejoin="round"/>
<path d="M219.895 209.195C219.895 209.195 219.148 208.42 218.126 207.615M191.154 226.648C190.732 225.768 190.463 224.823 190.356 223.853" stroke="#103849" stroke-width="1.30918" stroke-miterlimit="10" stroke-linecap="round" stroke-linejoin="round"/>
<path d="M210.054 219.955C210.395 220.899 210.569 221.895 210.568 222.898C210.568 228.059 206.032 232.241 200.435 232.241C196.285 232.241 192.719 229.941 191.155 226.648C189.866 227.523 188.319 228.033 186.658 228.033C182.934 228.033 179.792 225.473 178.807 221.973C178.103 222.148 177.381 222.236 176.656 222.236C171.791 222.236 167.846 218.298 167.846 213.438C167.846 209.705 170.174 206.515 173.46 205.239C173.331 204.705 173.262 204.151 173.262 203.582C173.262 199.175 177.363 195.602 182.423 195.602C185.328 195.602 187.92 196.782 189.597 198.619C190.942 197.898 192.493 197.485 194.146 197.485C199.273 197.485 203.43 201.454 203.43 206.35C203.43 206.466 203.427 206.581 203.421 206.696C207.652 207.471 210.867 211.351 210.867 216.021C210.867 217.425 210.578 218.757 210.054 219.955" fill="#FF5CAA"/>
<path d="M206.766 215.605C208.276 216.72 209.432 218.227 210.054 219.956M178.806 221.974C178.597 221.232 178.485 220.449 178.485 219.639C178.485 216.331 180.349 213.47 183.056 212.102M175.754 204.687C174.953 204.769 174.183 204.957 173.46 205.24M189.598 198.621L189.597 198.62M189.597 198.62C188.446 199.241 187.448 200.087 186.668 201.097" stroke="#103849" stroke-width="1.30918" stroke-miterlimit="10" stroke-linecap="round" stroke-linejoin="round"/>
<path d="M210.054 219.955C210.395 220.899 210.569 221.895 210.568 222.898C210.568 228.059 206.032 232.241 200.435 232.241C196.285 232.241 192.719 229.941 191.155 226.649C189.866 227.523 188.319 228.033 186.658 228.033C182.934 228.033 179.792 225.474 178.807 221.973C178.103 222.148 177.381 222.237 176.656 222.236C171.791 222.236 167.846 218.298 167.846 213.438C167.846 209.705 170.174 206.515 173.46 205.239C173.331 204.705 173.262 204.151 173.262 203.582C173.262 199.175 177.363 195.602 182.423 195.602C185.328 195.602 187.92 196.782 189.597 198.619C190.942 197.898 192.493 197.485 194.146 197.485C199.273 197.485 203.43 201.454 203.43 206.35C203.43 206.466 203.427 206.581 203.421 206.697C207.652 207.471 210.867 211.351 210.867 216.021C210.867 217.425 210.578 218.757 210.054 219.955L210.054 219.955Z" stroke="#103849" stroke-width="1.14546" stroke-miterlimit="10" stroke-linejoin="round"/>
<path d="M195.504 209.332C197.133 207.619 199.384 206.558 201.867 206.558C202.398 206.558 202.917 206.606 203.422 206.699M202.839 217.83C201.555 219.434 199.58 220.461 197.364 220.461C193.494 220.461 190.356 217.328 190.356 213.464C190.354 211.85 190.912 210.285 191.936 209.037" stroke="#103849" stroke-width="1.30918" stroke-miterlimit="10" stroke-linecap="round" stroke-linejoin="round"/>
<path d="M200.462 223.925C200.462 222.55 200.115 221.258 199.503 220.129M185.817 219.455C186.973 217.746 188.771 216.509 190.868 216.089M173.325 213.445C174.213 213.094 175.159 212.913 176.114 212.914C177.644 212.911 179.14 213.376 180.399 214.244M187.731 207.004C187.255 207.145 186.75 207.22 186.228 207.22C184.841 207.222 183.509 206.681 182.517 205.714M210.729 206.663C211.462 206.117 212.353 205.822 213.268 205.824C213.523 205.823 213.777 205.846 214.027 205.891" stroke="#103849" stroke-width="1.30918" stroke-miterlimit="10" stroke-linecap="round" stroke-linejoin="round"/>
<path d="M220.65 209.199C221.652 207.958 222.198 206.419 222.198 204.813C222.198 200.952 219.054 197.812 215.189 197.812C214.919 197.812 214.649 197.827 214.382 197.858C214.109 193.043 210.1 189.21 205.212 189.21C203.582 189.21 201.998 189.636 200.604 190.446C198.43 188.277 195.484 187.057 192.411 187.054C187.261 187.054 182.888 190.429 181.386 195.079C176.505 195.536 172.689 199.174 172.689 203.582C172.689 204.021 172.728 204.46 172.804 204.894C169.428 206.405 167.273 209.707 167.273 213.438C167.273 218.605 171.482 222.808 176.656 222.808C177.247 222.808 177.837 222.753 178.417 222.644C179.645 226.179 182.961 228.605 186.658 228.605C188.158 228.606 189.632 228.212 190.931 227.463C192.761 230.733 196.42 232.813 200.435 232.813C205.324 232.813 209.455 229.761 210.731 225.607C211.373 225.734 212.033 225.8 212.705 225.8C218.335 225.8 222.916 221.226 222.916 215.605C222.916 213.263 222.115 211.007 220.65 209.199V209.199Z" stroke="#103849" stroke-width="2.29104" stroke-miterlimit="10" stroke-linejoin="round"/>
<path d="M192.411 183.786C189.386 183.786 186.476 184.686 183.996 186.387C181.855 187.857 180.157 189.839 179.036 192.166C173.578 193.487 169.676 197.873 169.429 203.06C166.051 205.402 164 209.269 164 213.438C164 220.334 169.56 225.958 176.437 226.075C178.609 229.638 182.481 231.873 186.658 231.873C187.725 231.873 188.774 231.732 189.791 231.452C192.424 234.376 196.292 236.081 200.435 236.081C203.241 236.081 205.96 235.287 208.297 233.784C210.195 232.562 211.725 230.95 212.784 229.069C220.183 229.026 226.189 223.003 226.189 215.605C226.189 213.319 225.616 211.102 224.523 209.119C225.148 207.769 225.471 206.3 225.471 204.813C225.471 202.12 224.431 199.573 222.544 197.642C221.055 196.12 219.171 195.114 217.121 194.724C216.428 192.478 215.101 190.453 213.287 188.911C211.034 186.995 208.171 185.942 205.212 185.941C203.832 185.941 202.448 186.175 201.144 186.623C198.61 184.785 195.556 183.786 192.411 183.786ZM192.411 185.91C195.479 185.91 198.487 187.048 200.791 189.056C202.173 188.404 203.683 188.065 205.211 188.066C210.304 188.066 214.579 191.764 215.4 196.671C219.799 196.783 223.343 200.393 223.343 204.813C223.342 206.362 222.899 207.878 222.067 209.185C223.359 211.064 224.061 213.312 224.061 215.605C224.061 221.858 218.967 226.945 212.705 226.945C212.3 226.945 211.893 226.923 211.489 226.879C209.741 231.092 205.337 233.957 200.435 233.957C196.392 233.957 192.687 232.063 190.514 228.951C189.297 229.477 187.984 229.748 186.658 229.749C182.793 229.749 179.298 227.435 177.688 223.902C177.346 223.936 177.001 223.952 176.656 223.952C170.851 223.952 166.127 219.236 166.127 213.438C166.127 209.589 168.237 206.063 171.568 204.231C171.552 204.015 171.544 203.799 171.544 203.582C171.544 198.827 175.363 194.832 180.543 194.032C182.436 189.144 187.116 185.91 192.412 185.91" fill="#F0F0F0"/>
</g>
<path opacity="0.05" d="M195 455.726C330.724 455.726 440.75 345.7 440.75 209.976C440.75 74.2519 330.724 -35.7741 195 -35.7741C59.276 -35.7741 -50.75 74.2519 -50.75 209.976C-50.75 345.7 59.276 455.726 195 455.726Z" stroke="#FF1A88" stroke-width="0.8"/>
<path opacity="0.1" d="M195 386.726C292.616 386.726 371.75 307.592 371.75 209.976C371.75 112.36 292.616 33.2259 195 33.2259C97.3837 33.2259 18.25 112.36 18.25 209.976C18.25 307.592 97.3837 386.726 195 386.726Z" stroke="#FF1A88" stroke-width="0.7"/>
<path opacity="0.2" d="M195 325.726C258.927 325.726 310.75 273.903 310.75 209.976C310.75 146.049 258.927 94.2259 195 94.2259C131.073 94.2259 79.25 146.049 79.25 209.976C79.25 273.903 131.073 325.726 195 325.726Z" stroke="#FF1A88" stroke-width="0.6"/>
<path opacity="0.3" d="M195 277.726C232.417 277.726 262.75 247.393 262.75 209.976C262.75 172.559 232.417 142.226 195 142.226C157.583 142.226 127.25 172.559 127.25 209.976C127.25 247.393 157.583 277.726 195 277.726Z" stroke="#FF1A88" stroke-width="0.5"/>
</g>
<defs>
<clipPath id="clip0_52_61757">
<rect width="588" height="405" fill="white"/>
</clipPath>
<clipPath id="clip1_52_61757">
<rect width="62.1892" height="52.2955" fill="white" transform="translate(164 183.786)"/>
</clipPath>
</defs>
</svg>
